<svg width="36" height="36" viewBox="0 0 36 36" fill="none" xmlns="http://www.w3.org/2000/svg">
<rect width="36" height="36" rx="18" fill="#0019FF"/>
<path d="M18.8388 25V17.7027H21.499L21.8964 14.8559H18.8388V13.036C18.8388 12.5796 18.9367 12.2432 19.1324 12.027C19.3628 11.7748 19.7774 11.6486 20.3762 11.6486H22V9.10811C21.8157 9.08408 21.5278 9.06006 21.1363 9.03604C20.6296 9.01201 20.1228 9 19.6161 9C18.833 9 18.142 9.14414 17.5432 9.43243C16.9443 9.72072 16.4808 10.1471 16.1526 10.7117C15.8244 11.2763 15.6603 11.955 15.6603 12.7477V14.8559H13V17.7027H15.6603V25H18.8388Z" fill="#F8FAFC"/>
</svg>
