<svg width="40" height="40" viewBox="0 0 40 40" fill="none" xmlns="http://www.w3.org/2000/svg">
<g clip-path="url(#clip0_1017_643)">
<path d="M19.9998 39.9996C31.0454 39.9996 39.9996 31.0454 39.9996 19.9998C39.9996 8.95422 31.0454 0 19.9998 0C8.95422 0 0 8.95422 0 19.9998C0 31.0454 8.95422 39.9996 19.9998 39.9996Z" fill="#F8FAFC"/>
<path fill-rule="evenodd" clip-rule="evenodd" d="M11.879 13.879C11 14.757 11 16.172 11 19V21C11 23.828 11 25.243 11.879 26.121C12.757 27 14.172 27 17 27H23C25.828 27 27.243 27 28.121 26.121C29 25.243 29 23.828 29 21V19C29 16.172 29 14.757 28.121 13.879C27.243 13 25.828 13 23 13H17C14.172 13 12.757 13 11.879 13.879ZM14.555 16.168C14.3343 16.0208 14.0642 15.9673 13.8041 16.0192C13.544 16.0712 13.3152 16.2243 13.168 16.445C13.0208 16.6657 12.9673 16.9358 13.0192 17.1959C13.0712 17.456 13.2243 17.6848 13.445 17.832L18.891 21.462C19.2195 21.6809 19.6053 21.7976 20 21.7976C20.3947 21.7976 20.7805 21.6809 21.109 21.462L26.555 17.832C26.7757 17.6848 26.9288 17.456 26.9808 17.1959C27.0327 16.9358 26.9792 16.6657 26.832 16.445C26.6848 16.2243 26.456 16.0712 26.1959 16.0192C25.9358 15.9673 25.6657 16.0208 25.445 16.168L20 19.798L14.555 16.168Z" fill="#0F172A"/>
</g>
<defs>
<clipPath id="clip0_1017_643">
<rect width="40" height="40" fill="white"/>
</clipPath>
</defs>
</svg>
