<svg width="36" height="36" viewBox="0 0 36 36" fill="none" xmlns="http://www.w3.org/2000/svg">
<rect width="36" height="36" rx="18" fill="#0019FF"/>
<path d="M14.022 9.20185C13.11 9.20185 12.264 9.42985 11.484 9.88585C10.728 10.3299 10.128 10.9299 9.684 11.6859C9.228 12.4659 9 13.3119 9 14.2239V20.7759C9 21.6879 9.228 22.5339 9.684 23.3139C10.128 24.0699 10.728 24.6699 11.484 25.1139C12.264 25.5699 13.11 25.7979 14.022 25.7979H20.574C21.486 25.7979 22.332 25.5699 23.112 25.1139C23.868 24.6699 24.468 24.0699 24.912 23.3139C25.368 22.5339 25.596 21.6879 25.596 20.7759V14.2239C25.596 13.3119 25.368 12.4659 24.912 11.6859C24.468 10.9299 23.868 10.3299 23.112 9.88585C22.332 9.42985 21.486 9.20185 20.574 9.20185H14.022ZM21.672 12.2619C21.912 12.2619 22.116 12.3459 22.284 12.5139C22.452 12.6819 22.536 12.8859 22.536 13.1259C22.536 13.3659 22.452 13.5729 22.284 13.7469C22.116 13.9209 21.912 14.0079 21.672 14.0079C21.432 14.0079 21.225 13.9209 21.051 13.7469C20.877 13.5729 20.79 13.3659 20.79 13.1259C20.79 12.8859 20.877 12.6819 21.051 12.5139C21.225 12.3459 21.432 12.2619 21.672 12.2619ZM17.298 13.1259C18.09 13.1259 18.822 13.3209 19.494 13.7109C20.166 14.1009 20.697 14.6319 21.087 15.3039C21.477 15.9759 21.672 16.7079 21.672 17.4999C21.672 18.2919 21.477 19.0209 21.087 19.6869C20.697 20.3529 20.166 20.8809 19.494 21.2709C18.822 21.6609 18.09 21.8559 17.298 21.8559C16.506 21.8559 15.777 21.6609 15.111 21.2709C14.445 20.8809 13.917 20.3529 13.527 19.6869C13.137 19.0209 12.942 18.2919 12.942 17.4999C12.942 16.7079 13.137 15.9759 13.527 15.3039C13.917 14.6319 14.445 14.1009 15.111 13.7109C15.777 13.3209 16.506 13.1259 17.298 13.1259ZM17.298 14.4399C16.926 14.4399 16.536 14.5179 16.128 14.6739C15.732 14.8539 15.399 15.0789 15.129 15.3489C14.859 15.6189 14.64 15.9459 14.472 16.3299C14.316 16.7379 14.238 17.1279 14.238 17.4999C14.238 17.8719 14.316 18.2619 14.472 18.6699C14.652 19.0659 14.874 19.3959 15.138 19.6599C15.402 19.9239 15.732 20.1459 16.128 20.3259C16.536 20.4819 16.926 20.5599 17.298 20.5599C17.67 20.5599 18.06 20.4819 18.468 20.3259C18.852 20.1579 19.179 19.9389 19.449 19.6689C19.719 19.3989 19.944 19.0659 20.124 18.6699C20.28 18.2619 20.358 17.8719 20.358 17.4999C20.358 17.1279 20.28 16.7379 20.124 16.3299C19.968 15.9459 19.749 15.6129 19.467 15.3309C19.185 15.0489 18.852 14.8299 18.468 14.6739C18.06 14.5179 17.67 14.4399 17.298 14.4399Z" fill="#F8FAFC"/>
</svg>
