<svg width="36" height="36" viewBox="0 0 36 36" fill="none" xmlns="http://www.w3.org/2000/svg">
<rect width="36" height="36" rx="18" fill="#0019FF"/>
<path d="M9 11.3804C9 10.8284 9.186 10.3784 9.558 10.0304C9.93 9.68243 10.428 9.50843 11.052 9.50843C11.676 9.50843 12.174 9.68543 12.546 10.0394C12.918 10.3934 13.104 10.8584 13.104 11.4344C13.104 11.9504 12.912 12.3854 12.528 12.7394C12.144 13.0934 11.646 13.2704 11.034 13.2704H11.016C10.404 13.2704 9.915 13.0904 9.549 12.7304C9.183 12.3704 9 11.9204 9 11.3804ZM9.216 25.6904V14.7644H12.852V25.6904H9.216ZM14.868 25.6904H18.522V19.5884C18.522 19.2044 18.564 18.9104 18.648 18.7064C18.792 18.3344 19.026 18.0194 19.35 17.7614C19.674 17.5034 20.064 17.3744 20.52 17.3744C21.744 17.3744 22.356 18.2024 22.356 19.8584V25.6904H25.992V19.4264C25.992 17.7944 25.611 16.5674 24.849 15.7454C24.087 14.9234 23.076 14.5124 21.816 14.5124C20.388 14.5124 19.29 15.1124 18.522 16.3124V16.3484H18.504L18.522 16.3124V14.7644H14.868C14.892 15.2204 14.904 16.3064 14.904 18.0224C14.904 18.9464 14.898 20.7644 14.886 23.4764L14.868 25.6904Z" fill="#F8FAFC"/>
</svg>
