<svg width="30" height="30" viewBox="0 0 30 30" fill="none" xmlns="http://www.w3.org/2000/svg">
<g clip-path="url(#clip0_1017_451)">
<path d="M14.9805 0.0185547C6.70797 0.0185547 0 6.72652 0 14.9991C0 19.7966 2.25496 24.0671 5.76366 26.8096V21.2064C4.67339 19.5046 4.03996 17.4803 4.03996 15.31C4.03996 9.3595 8.79071 4.51826 14.7076 4.37231C14.7996 4.36939 14.8901 4.36939 14.982 4.36939C15.074 4.36939 15.1659 4.36939 15.2564 4.37231C21.1718 4.51826 25.924 9.3595 25.924 15.31C25.924 17.4817 25.2921 19.5046 24.2003 21.2064V26.8096C27.7076 24.0671 29.964 19.7966 29.964 14.9991C29.9625 6.72652 23.2546 0.0185547 14.9805 0.0185547Z" fill="#0F172A"/>
<path d="M7.52344 18.916V27.9957C8.69835 28.6715 9.97544 29.1911 11.3226 29.5297V18.9175H7.52344V18.916Z" fill="#64748B"/>
<path d="M13.083 15.3896V29.8594C13.7048 29.9382 14.3397 29.9805 14.9833 29.9805C15.627 29.9805 16.2604 29.9382 16.8836 29.8594V15.3896H13.0845H13.083Z" fill="#0019FF"/>
<path d="M18.6426 10.7793V29.5298C19.9912 29.1912 21.2668 28.6716 22.4417 27.9958V10.7793H18.6426Z" fill="#0F172A"/>
</g>
<defs>
<clipPath id="clip0_1017_451">
<rect width="29.9625" height="29.9625" fill="white" transform="translate(0 0.0185547)"/>
</clipPath>
</defs>
</svg>
