<svg width="267" height="40" viewBox="0 0 267 40" fill="none" xmlns="http://www.w3.org/2000/svg">
<g clip-path="url(#clip0_1017_659)">
<path d="M19.999 0C8.95514 0 0 8.95514 0 19.999C0 26.4036 3.01038 32.1048 7.69448 35.766V28.2858C6.23898 26.0139 5.39335 23.3114 5.39335 20.414C5.39335 12.4702 11.7356 6.00711 19.6347 5.81227C19.7574 5.80837 19.8782 5.80837 20.001 5.80837C20.1237 5.80837 20.2465 5.80837 20.3673 5.81227C28.2644 6.00711 34.6086 12.4702 34.6086 20.414C34.6086 23.3134 33.7649 26.0139 32.3075 28.2858V35.766C36.9896 32.1048 40.0019 26.4036 40.0019 19.999C40 8.95514 31.0449 0 19.999 0Z" fill="white"/>
<path d="M10.043 25.2285V37.3499C11.6115 38.252 13.3164 38.9457 15.1148 39.3977V25.2305H10.043V25.2285Z" fill="#64748B"/>
<path d="M17.4648 20.5215V39.8386C18.2949 39.9438 19.1425 40.0003 20.0017 40.0003C20.861 40.0003 21.7066 39.9438 22.5386 39.8386V20.5215H17.4668H17.4648Z" fill="#0019FF"/>
<path d="M24.8867 14.3662V39.3981C26.6871 38.9461 28.3901 38.2524 29.9586 37.3503V14.3662H24.8867Z" fill="white"/>
</g>
<path d="M65.96 28.98C59.96 28.98 56.72 24.66 56.72 20.1C56.72 15.54 59.96 11.22 65.96 11.22C71.72 11.22 73.88 14.94 74.48 17.46L71.36 17.82C70.88 16.26 69.56 14.1 65.96 14.1C62.36 14.1 59.84 16.74 59.84 20.1C59.84 23.46 62.24 26.1 65.96 26.1C68.96 26.1 70.76 24.42 71.48 23.58L74.12 25.26C73.4 26.1 71.24 28.98 65.96 28.98ZM84.6866 28.98C78.6866 28.98 75.4466 24.66 75.4466 20.1C75.4466 15.54 78.6866 11.22 84.6866 11.22C90.6866 11.22 93.9266 15.54 93.9266 20.1C93.9266 24.66 90.6866 28.98 84.6866 28.98ZM84.6866 26.1C88.2866 26.1 90.8066 23.46 90.8066 20.1C90.8066 16.74 88.2866 14.1 84.6866 14.1C81.0866 14.1 78.5666 16.74 78.5666 20.1C78.5666 23.46 81.0866 26.1 84.6866 26.1ZM96.0884 28.5V11.7H98.6084L108.328 23.1V11.7H111.448V28.5H108.928L99.2084 17.1V28.5H96.0884ZM121.523 28.98C116.243 28.98 114.083 26.1 113.363 25.26L116.003 23.58C116.723 24.42 118.523 26.1 121.523 26.1C123.683 26.1 125.603 25.5 125.603 23.94C125.603 20.58 113.843 22.74 113.843 16.5C113.843 13.86 116.243 11.22 120.803 11.22C124.883 11.22 127.403 13.38 128.363 15.78L125.243 16.38C124.643 15.18 123.083 14.1 120.683 14.1C118.163 14.1 116.963 15.3 116.963 16.5C116.963 19.74 128.723 17.46 128.723 23.94C128.723 27.54 125.603 28.98 121.523 28.98ZM139.413 28.98C133.413 28.98 130.173 24.66 130.173 20.1C130.173 15.54 133.413 11.22 139.413 11.22C145.173 11.22 147.333 14.94 147.933 17.46L144.813 17.82C144.333 16.26 143.013 14.1 139.413 14.1C135.813 14.1 133.293 16.74 133.293 20.1C133.293 23.46 135.693 26.1 139.413 26.1C142.413 26.1 144.213 24.42 144.933 23.58L147.573 25.26C146.853 26.1 144.693 28.98 139.413 28.98ZM149.62 28.5V11.7H164.02V14.58H152.74V17.34H161.26V20.22H152.74V25.62H164.02V28.5H149.62ZM166.424 28.5V11.7H169.544V25.62H179.984V28.5H166.424ZM181.893 28.5V11.7H185.013V25.62H195.453V28.5H181.893ZM197.362 28.5V11.7H211.762V14.58H200.482V17.34H209.002V20.22H200.482V25.62H211.762V28.5H197.362ZM214.167 28.5V11.7H216.687L226.407 23.1V11.7H229.527V28.5H227.007L217.287 17.1V28.5H214.167ZM240.921 28.98C234.921 28.98 231.681 24.66 231.681 20.1C231.681 15.54 234.921 11.22 240.921 11.22C246.681 11.22 248.841 14.94 249.441 17.46L246.321 17.82C245.841 16.26 244.521 14.1 240.921 14.1C237.321 14.1 234.801 16.74 234.801 20.1C234.801 23.46 237.201 26.1 240.921 26.1C243.921 26.1 245.721 24.42 246.441 23.58L249.081 25.26C248.361 26.1 246.201 28.98 240.921 28.98ZM251.128 28.5V11.7H265.528V14.58H254.248V17.34H262.768V20.22H254.248V25.62H265.528V28.5H251.128Z" fill="white"/>
<defs>
<clipPath id="clip0_1017_659">
<rect width="40" height="40" fill="white"/>
</clipPath>
</defs>
</svg>
