<svg width="40" height="40" viewBox="0 0 40 40" fill="none" xmlns="http://www.w3.org/2000/svg">
<g clip-path="url(#clip0_1017_637)">
<path d="M19.9998 39.9996C31.0454 39.9996 39.9996 31.0454 39.9996 19.9998C39.9996 8.95422 31.0454 0 19.9998 0C8.95422 0 0 8.95422 0 19.9998C0 31.0454 8.95422 39.9996 19.9998 39.9996Z" fill="#F8FAFC"/>
<path d="M15.4564 18.4263L20.5733 23.5433C21.1754 24.1453 22.1716 24.1254 22.7978 23.4985L23.4198 22.8765C24.1107 22.1856 25.2085 22.1639 25.8722 22.827L28.5119 25.4667C29.1648 26.1196 29.1672 27.2064 28.492 27.8895C28.4878 27.8937 28.4835 27.898 28.4793 27.9022C27.8887 28.4928 27.1029 28.8379 26.1853 28.954C23.2457 29.3294 18.9237 27.3914 15.2666 23.7343C11.6083 20.076 9.67158 15.7551 10.0458 12.8143C10.1624 11.8973 10.5076 11.1115 11.0982 10.5209C11.1024 10.5167 11.1066 10.5125 11.1108 10.5082C11.7939 9.83243 12.8808 9.83545 13.5336 10.4883L16.1727 13.1275C16.8365 13.7912 16.8141 14.8889 16.1232 15.5798L15.5012 16.2019C14.8743 16.8287 14.8544 17.8249 15.4564 18.4263Z" fill="#0F172A"/>
</g>
<defs>
<clipPath id="clip0_1017_637">
<rect width="40" height="40" fill="white"/>
</clipPath>
</defs>
</svg>
