<svg width="701" height="180" viewBox="0 0 701 180" fill="none" xmlns="http://www.w3.org/2000/svg">
<path d="M11.536 26.968C11.536 29.4693 12.04 31.6347 13.048 33.464C14.056 35.2933 15.4933 36.712 17.36 37.72C19.264 38.6907 21.5227 39.176 24.136 39.176C26.7867 39.176 29.0453 38.6907 30.912 37.72C32.7787 36.712 34.216 35.2933 35.224 33.464C36.232 31.6347 36.736 29.4693 36.736 26.968V3H44.128V27.248C44.128 30.944 43.288 34.192 41.608 36.992C39.928 39.7547 37.5947 41.92 34.608 43.488C31.6213 45.0187 28.1307 45.784 24.136 45.784C20.1787 45.784 16.688 45.0187 13.664 43.488C10.6773 41.92 8.344 39.7547 6.664 36.992C4.984 34.192 4.144 30.944 4.144 27.248V3H11.536V26.968ZM50.3129 13.304H57.5929L59.4969 24.728V45H52.2169V23.664L50.3129 13.304ZM72.0969 12.52C75.0836 12.52 77.6223 13.1173 79.7129 14.312C81.8036 15.5067 83.3903 17.224 84.4729 19.464C85.5929 21.6667 86.1529 24.336 86.1529 27.472V45H78.8729V28.648C78.8729 25.3253 78.0889 22.824 76.5209 21.144C74.9903 19.4267 72.7316 18.568 69.7449 18.568C67.6916 18.568 65.8809 19.0347 64.3129 19.968C62.7823 20.864 61.5876 22.1333 60.7289 23.776C59.9076 25.4187 59.4969 27.3413 59.4969 29.544L56.9209 28.144C57.2569 24.8587 58.1156 22.0587 59.4969 19.744C60.8783 17.4293 62.6516 15.656 64.8169 14.424C66.9823 13.1547 69.4089 12.52 72.0969 12.52ZM93.4421 1.88H100.722V45H93.4421V1.88ZM125.955 45.784C122.109 45.784 118.731 45.0933 115.819 43.712C112.944 42.2933 110.685 40.3333 109.043 37.832C107.437 35.3307 106.635 32.4373 106.635 29.152C106.635 25.8293 107.437 22.936 109.043 20.472C110.685 17.9707 112.944 16.0293 115.819 14.648C118.731 13.2293 122.109 12.52 125.955 12.52C129.8 12.52 133.16 13.2293 136.035 14.648C138.947 16.0293 141.205 17.9707 142.811 20.472C144.453 22.936 145.275 25.8293 145.275 29.152C145.275 32.4373 144.453 35.3307 142.811 37.832C141.205 40.3333 138.947 42.2933 136.035 43.712C133.16 45.0933 129.8 45.784 125.955 45.784ZM125.955 40.072C128.419 40.072 130.528 39.624 132.283 38.728C134.075 37.832 135.456 36.5813 136.427 34.976C137.397 33.3333 137.883 31.392 137.883 29.152C137.883 26.912 137.397 24.9893 136.427 23.384C135.456 21.7413 134.075 20.472 132.283 19.576C130.528 18.68 128.419 18.232 125.955 18.232C123.528 18.232 121.419 18.68 119.627 19.576C117.835 20.472 116.453 21.7413 115.483 23.384C114.512 24.9893 114.027 26.912 114.027 29.152C114.027 31.392 114.512 33.3333 115.483 34.976C116.453 36.5813 117.835 37.832 119.627 38.728C121.419 39.624 123.528 40.072 125.955 40.072ZM186.192 32.512C185.819 35.1253 184.792 37.44 183.112 39.456C181.432 41.4347 179.285 42.984 176.672 44.104C174.059 45.224 171.147 45.784 167.936 45.784C164.277 45.784 161.048 45.0933 158.248 43.712C155.485 42.2933 153.32 40.3333 151.752 37.832C150.184 35.3307 149.4 32.4373 149.4 29.152C149.4 25.8667 150.184 22.9733 151.752 20.472C153.32 17.9707 155.485 16.0293 158.248 14.648C161.048 13.2293 164.277 12.52 167.936 12.52C171.147 12.52 174.059 13.08 176.672 14.2C179.285 15.32 181.432 16.888 183.112 18.904C184.792 20.8827 185.819 23.1973 186.192 25.848H178.856C178.333 23.4587 177.083 21.592 175.104 20.248C173.125 18.904 170.736 18.232 167.936 18.232C165.696 18.232 163.736 18.68 162.056 19.576C160.376 20.4347 159.069 21.6853 158.136 23.328C157.24 24.9333 156.792 26.8747 156.792 29.152C156.792 31.392 157.24 33.3333 158.136 34.976C159.069 36.6187 160.376 37.888 162.056 38.784C163.736 39.6427 165.696 40.072 167.936 40.072C170.773 40.072 173.181 39.3813 175.16 38C177.139 36.6187 178.371 34.7893 178.856 32.512H186.192ZM198.996 38.672L196.868 37.888L217.028 13.304H225.428L198.492 45H191.716V1.88H198.996V38.672ZM208.012 29.32L213.108 24.728L226.38 45H217.812L208.012 29.32ZM259.65 45V24.952H267.042V45H259.65ZM239.826 3H248.17L265.306 24.504H261.33L278.466 3H286.81L265.698 29.488L260.994 29.544L239.826 3ZM299.697 45.784C295.851 45.784 292.473 45.0933 289.561 43.712C286.686 42.2933 284.427 40.3333 282.785 37.832C281.179 35.3307 280.377 32.4373 280.377 29.152C280.377 25.8293 281.179 22.936 282.785 20.472C284.427 17.9707 286.686 16.0293 289.561 14.648C292.473 13.2293 295.851 12.52 299.697 12.52C303.542 12.52 306.902 13.2293 309.777 14.648C312.689 16.0293 314.947 17.9707 316.553 20.472C318.195 22.936 319.017 25.8293 319.017 29.152C319.017 32.4373 318.195 35.3307 316.553 37.832C314.947 40.3333 312.689 42.2933 309.777 43.712C306.902 45.0933 303.542 45.784 299.697 45.784ZM299.697 40.072C302.161 40.072 304.27 39.624 306.025 38.728C307.817 37.832 309.198 36.5813 310.169 34.976C311.139 33.3333 311.625 31.392 311.625 29.152C311.625 26.912 311.139 24.9893 310.169 23.384C309.198 21.7413 307.817 20.472 306.025 19.576C304.27 18.68 302.161 18.232 299.697 18.232C297.27 18.232 295.161 18.68 293.369 19.576C291.577 20.472 290.195 21.7413 289.225 23.384C288.254 24.9893 287.769 26.912 287.769 29.152C287.769 31.392 288.254 33.3333 289.225 34.976C290.195 36.5813 291.577 37.832 293.369 38.728C295.161 39.624 297.27 40.072 299.697 40.072ZM338.206 45.784C335.294 45.784 332.812 45.1867 330.758 43.992C328.742 42.7973 327.193 41.08 326.11 38.84C325.028 36.6 324.486 33.9307 324.486 30.832V13.304H331.766V29.712C331.766 32.9973 332.513 35.4987 334.006 37.216C335.537 38.896 337.721 39.736 340.558 39.736C342.612 39.736 344.366 39.288 345.822 38.392C347.316 37.496 348.473 36.2267 349.294 34.584C350.116 32.904 350.526 30.9627 350.526 28.76L353.046 30.16C352.748 33.408 351.926 36.208 350.582 38.56C349.238 40.8747 347.502 42.6667 345.374 43.936C343.246 45.168 340.857 45.784 338.206 45.784ZM352.374 45L350.526 33.576V13.304H357.806V34.696L359.654 45H352.374ZM364.438 13.304H371.718L373.622 24.84V45H366.342V23.44L364.438 13.304ZM389.694 13.08V19.464C388.873 19.24 387.977 19.072 387.006 18.96C386.035 18.848 385.121 18.792 384.262 18.792C382.209 18.792 380.379 19.24 378.774 20.136C377.169 21.032 375.899 22.376 374.966 24.168C374.07 25.9227 373.622 28.088 373.622 30.664L371.942 28.592C372.091 26.352 372.465 24.2613 373.062 22.32C373.697 20.3413 374.555 18.624 375.638 17.168C376.758 15.712 378.121 14.5733 379.726 13.752C381.331 12.9307 383.198 12.52 385.326 12.52C386.073 12.52 386.838 12.576 387.622 12.688C388.406 12.7627 389.097 12.8933 389.694 13.08ZM430.53 3C433.666 3 436.372 3.56 438.65 4.68C440.964 5.8 442.738 7.368 443.97 9.384C445.239 11.3627 445.874 13.6587 445.874 16.272C445.874 18.8853 445.239 21.2 443.97 23.216C442.738 25.1947 440.964 26.744 438.65 27.864C436.372 28.984 433.666 29.544 430.53 29.544H411.658V23.16H430.25C432.788 23.16 434.767 22.544 436.186 21.312C437.642 20.08 438.37 18.4 438.37 16.272C438.37 14.144 437.642 12.464 436.186 11.232C434.767 10 432.788 9.384 430.25 9.384H412.386L415.69 5.688V45H408.298V3H430.53ZM467.806 45.784C463.961 45.784 460.582 45.0933 457.67 43.712C454.795 42.2933 452.537 40.3333 450.894 37.832C449.289 35.3307 448.486 32.4373 448.486 29.152C448.486 25.8293 449.289 22.936 450.894 20.472C452.537 17.9707 454.795 16.0293 457.67 14.648C460.582 13.2293 463.961 12.52 467.806 12.52C471.651 12.52 475.011 13.2293 477.886 14.648C480.798 16.0293 483.057 17.9707 484.662 20.472C486.305 22.936 487.126 25.8293 487.126 29.152C487.126 32.4373 486.305 35.3307 484.662 37.832C483.057 40.3333 480.798 42.2933 477.886 43.712C475.011 45.0933 471.651 45.784 467.806 45.784ZM467.806 40.072C470.27 40.072 472.379 39.624 474.134 38.728C475.926 37.832 477.307 36.5813 478.278 34.976C479.249 33.3333 479.734 31.392 479.734 29.152C479.734 26.912 479.249 24.9893 478.278 23.384C477.307 21.7413 475.926 20.472 474.134 19.576C472.379 18.68 470.27 18.232 467.806 18.232C465.379 18.232 463.27 18.68 461.478 19.576C459.686 20.472 458.305 21.7413 457.334 23.384C456.363 24.9893 455.878 26.912 455.878 29.152C455.878 31.392 456.363 33.3333 457.334 34.976C458.305 36.5813 459.686 37.832 461.478 38.728C463.27 39.624 465.379 40.072 467.806 40.072ZM488.858 18.904V15.6L495.634 13.864L498.658 5.016H502.914V13.304H517.642V18.904H502.914V32.624C502.914 35.2747 503.474 37.1413 504.594 38.224C505.751 39.2693 507.618 39.792 510.194 39.792C511.837 39.792 513.293 39.624 514.562 39.288C515.831 38.9147 517.045 38.392 518.202 37.72V43.712C517.231 44.1973 515.85 44.664 514.058 45.112C512.303 45.56 510.493 45.784 508.626 45.784C505.527 45.784 503.026 45.28 501.122 44.272C499.218 43.2267 497.818 41.808 496.922 40.016C496.063 38.1867 495.634 36.096 495.634 33.744V18.904H488.858ZM539.715 45.784C536.019 45.784 532.734 45.0933 529.859 43.712C526.984 42.2933 524.726 40.3333 523.083 37.832C521.44 35.3307 520.619 32.4187 520.619 29.096C520.619 25.8107 521.384 22.936 522.915 20.472C524.483 17.9707 526.63 16.0293 529.355 14.648C532.118 13.2293 535.272 12.52 538.819 12.52C542.366 12.52 545.427 13.3227 548.003 14.928C550.616 16.496 552.632 18.7173 554.051 21.592C555.47 24.4667 556.179 27.8453 556.179 31.728H526.331V26.184H552.539L548.899 28.256C548.787 26.1653 548.283 24.3733 547.387 22.88C546.528 21.3867 545.352 20.248 543.859 19.464C542.403 18.6427 540.667 18.232 538.651 18.232C536.523 18.232 534.656 18.6613 533.051 19.52C531.483 20.3787 530.251 21.592 529.355 23.16C528.459 24.6907 528.011 26.52 528.011 28.648C528.011 31 528.534 33.0347 529.579 34.752C530.662 36.4693 532.174 37.7947 534.115 38.728C536.094 39.624 538.427 40.072 541.115 40.072C543.542 40.072 546.024 39.6987 548.563 38.952C551.102 38.168 553.342 37.0853 555.283 35.704V40.968C553.342 42.4613 550.971 43.6373 548.171 44.496C545.408 45.3547 542.59 45.784 539.715 45.784ZM560.657 13.304H567.937L569.841 24.728V45H562.561V23.664L560.657 13.304ZM582.441 12.52C585.427 12.52 587.966 13.1173 590.057 14.312C592.147 15.5067 593.734 17.224 594.817 19.464C595.937 21.6667 596.497 24.336 596.497 27.472V45H589.217V28.648C589.217 25.3253 588.433 22.824 586.865 21.144C585.334 19.4267 583.075 18.568 580.089 18.568C578.035 18.568 576.225 19.0347 574.657 19.968C573.126 20.864 571.931 22.1333 571.073 23.776C570.251 25.4187 569.841 27.3413 569.841 29.544L567.265 28.144C567.601 24.8587 568.459 22.0587 569.841 19.744C571.222 17.4293 572.995 15.656 575.161 14.424C577.326 13.1547 579.753 12.52 582.441 12.52ZM599.764 18.904V15.6L606.54 13.864L609.564 5.016H613.82V13.304H628.548V18.904H613.82V32.624C613.82 35.2747 614.38 37.1413 615.5 38.224C616.658 39.2693 618.524 39.792 621.1 39.792C622.743 39.792 624.199 39.624 625.468 39.288C626.738 38.9147 627.951 38.392 629.108 37.72V43.712C628.138 44.1973 626.756 44.664 624.964 45.112C623.21 45.56 621.399 45.784 619.532 45.784C616.434 45.784 613.932 45.28 612.028 44.272C610.124 43.2267 608.724 41.808 607.828 40.016C606.97 38.1867 606.54 36.096 606.54 33.744V18.904H599.764ZM634.411 13.08L638.051 13.752L641.691 13.08V45H634.411V13.08ZM638.051 9.104C636.67 9.104 635.531 8.73067 634.635 7.984C633.739 7.2 633.291 6.192 633.291 4.96C633.291 3.728 633.739 2.73867 634.635 1.992C635.531 1.208 636.67 0.815998 638.051 0.815998C639.47 0.815998 640.608 1.208 641.467 1.992C642.363 2.73867 642.811 3.728 642.811 4.96C642.811 6.192 642.363 7.2 641.467 7.984C640.608 8.73067 639.47 9.104 638.051 9.104ZM678.963 45L677.731 33.24L679.187 29.152L677.731 25.12L678.963 13.304H686.467L684.787 29.152L686.467 45H678.963ZM681.203 29.152C680.494 32.4747 679.318 35.3867 677.675 37.888C676.033 40.3893 673.998 42.3307 671.571 43.712C669.182 45.0933 666.513 45.784 663.563 45.784C660.465 45.784 657.721 45.0933 655.331 43.712C652.942 42.2933 651.075 40.3333 649.731 37.832C648.387 35.3307 647.715 32.4373 647.715 29.152C647.715 25.8293 648.387 22.936 649.731 20.472C651.075 17.9707 652.942 16.0293 655.331 14.648C657.721 13.2293 660.465 12.52 663.563 12.52C666.513 12.52 669.182 13.2107 671.571 14.592C673.998 15.9733 676.033 17.9147 677.675 20.416C679.355 22.88 680.531 25.792 681.203 29.152ZM655.107 29.152C655.107 31.28 655.537 33.1653 656.395 34.808C657.291 36.4133 658.505 37.6827 660.035 38.616C661.566 39.512 663.321 39.96 665.299 39.96C667.315 39.96 669.182 39.512 670.899 38.616C672.617 37.6827 674.129 36.4133 675.435 34.808C676.779 33.1653 677.843 31.28 678.627 29.152C677.843 27.024 676.779 25.1573 675.435 23.552C674.129 21.9093 672.617 20.64 670.899 19.744C669.182 18.8107 667.315 18.344 665.299 18.344C663.321 18.344 661.566 18.8107 660.035 19.744C658.505 20.64 657.291 21.9093 656.395 23.552C655.537 25.1573 655.107 27.024 655.107 29.152ZM693.473 1.88H700.753V45H693.473V1.88Z" fill="#0019FF"/>
<path d="M45.248 103.248H42.672L53.592 75.304H60.872L48.104 107H40.656L29.456 78.608H32.312L20.832 107H13.384L0.672 75.304H8.064L19.04 103.248H16.296L27.272 75.304H34.552L45.248 103.248ZM65.3874 75.08L69.0274 75.752L72.6674 75.08V107H65.3874V75.08ZM69.0274 71.104C67.6461 71.104 66.5074 70.7307 65.6114 69.984C64.7154 69.2 64.2674 68.192 64.2674 66.96C64.2674 65.728 64.7154 64.7387 65.6114 63.992C66.5074 63.208 67.6461 62.816 69.0274 62.816C70.4461 62.816 71.5848 63.208 72.4434 63.992C73.3394 64.7387 73.7874 65.728 73.7874 66.96C73.7874 68.192 73.3394 69.2 72.4434 69.984C71.5848 70.7307 70.4461 71.104 69.0274 71.104ZM76.7878 80.904V77.6L83.5638 75.864L86.5878 67.016H90.8438V75.304H105.572V80.904H90.8438V94.624C90.8438 97.2747 91.4038 99.1413 92.5238 100.224C93.6811 101.269 95.5478 101.792 98.1238 101.792C99.7665 101.792 101.222 101.624 102.492 101.288C103.761 100.915 104.974 100.392 106.132 99.72V105.712C105.161 106.197 103.78 106.664 101.988 107.112C100.233 107.56 98.4225 107.784 96.5558 107.784C93.4571 107.784 90.9558 107.28 89.0518 106.272C87.1478 105.227 85.7478 103.808 84.8518 102.016C83.9931 100.187 83.5638 98.096 83.5638 95.744V80.904H76.7878ZM111.434 63.88H118.714V107H111.434V63.88ZM131.314 74.52C134.301 74.52 136.84 75.1173 138.93 76.312C141.021 77.5067 142.608 79.224 143.69 81.464C144.81 83.6667 145.37 86.336 145.37 89.472V107H138.09V90.648C138.09 87.3253 137.306 84.824 135.738 83.144C134.208 81.4267 131.949 80.568 128.962 80.568C126.909 80.568 125.098 81.0347 123.53 81.968C122 82.864 120.805 84.1333 119.946 85.776C119.125 87.4187 118.714 89.3413 118.714 91.544L116.138 90.144C116.474 86.8587 117.333 84.0587 118.714 81.744C120.096 79.4293 121.869 77.656 124.034 76.424C126.2 75.1547 128.626 74.52 131.314 74.52ZM165.753 93.336H173.257C173.481 95.016 174.172 96.4907 175.329 97.76C176.524 99.0293 178.092 100.019 180.033 100.728C181.974 101.4 184.214 101.736 186.753 101.736C190.524 101.736 193.51 101.157 195.713 100C197.916 98.8053 199.017 97.2 199.017 95.184C199.017 93.5413 198.382 92.3093 197.113 91.488C195.844 90.6667 193.548 90.0507 190.225 89.64L181.153 88.464C176.076 87.792 172.38 86.5413 170.065 84.712C167.788 82.8453 166.649 80.2133 166.649 76.816C166.649 74.24 167.414 72.0187 168.945 70.152C170.513 68.248 172.716 66.792 175.553 65.784C178.39 64.7387 181.713 64.216 185.521 64.216C189.292 64.216 192.633 64.776 195.545 65.896C198.457 67.016 200.772 68.584 202.489 70.6C204.244 72.5787 205.196 74.912 205.345 77.6H197.841C197.654 76.1067 197.02 74.8187 195.937 73.736C194.892 72.6533 193.473 71.8133 191.681 71.216C189.889 70.5813 187.78 70.264 185.353 70.264C181.918 70.264 179.174 70.824 177.121 71.944C175.068 73.064 174.041 74.5947 174.041 76.536C174.041 78.0293 174.638 79.1867 175.833 80.008C177.065 80.792 179.193 81.3893 182.217 81.8L191.401 83.088C195.172 83.6107 198.14 84.32 200.305 85.216C202.508 86.0747 204.076 87.2507 205.009 88.744C205.942 90.2 206.409 92.0853 206.409 94.4C206.409 97.088 205.588 99.44 203.945 101.456C202.302 103.472 199.988 105.04 197.001 106.16C194.052 107.243 190.598 107.784 186.641 107.784C182.609 107.784 179.044 107.187 175.945 105.992C172.884 104.76 170.457 103.061 168.665 100.896C166.873 98.7307 165.902 96.2107 165.753 93.336ZM208.858 80.904V77.6L215.634 75.864L218.658 67.016H222.914V75.304H237.642V80.904H222.914V94.624C222.914 97.2747 223.474 99.1413 224.594 100.224C225.751 101.269 227.618 101.792 230.194 101.792C231.837 101.792 233.293 101.624 234.562 101.288C235.831 100.915 237.045 100.392 238.202 99.72V105.712C237.231 106.197 235.85 106.664 234.058 107.112C232.303 107.56 230.493 107.784 228.626 107.784C225.527 107.784 223.026 107.28 221.122 106.272C219.218 105.227 217.818 103.808 216.922 102.016C216.063 100.187 215.634 98.096 215.634 95.744V80.904H208.858ZM241.993 75.304H249.273L251.177 86.84V107H243.897V85.44L241.993 75.304ZM267.249 75.08V81.464C266.427 81.24 265.531 81.072 264.561 80.96C263.59 80.848 262.675 80.792 261.817 80.792C259.763 80.792 257.934 81.24 256.329 82.136C254.723 83.032 253.454 84.376 252.521 86.168C251.625 87.9227 251.177 90.088 251.177 92.664L249.497 90.592C249.646 88.352 250.019 86.2613 250.617 84.32C251.251 82.3413 252.11 80.624 253.193 79.168C254.313 77.712 255.675 76.5733 257.281 75.752C258.886 74.9307 260.753 74.52 262.881 74.52C263.627 74.52 264.393 74.576 265.177 74.688C265.961 74.7627 266.651 74.8933 267.249 75.08ZM300.198 107L298.966 95.24L300.422 91.152L298.966 87.12L300.198 75.304H307.702L306.022 91.152L307.702 107H300.198ZM302.438 91.152C301.728 94.4747 300.552 97.3867 298.91 99.888C297.267 102.389 295.232 104.331 292.806 105.712C290.416 107.093 287.747 107.784 284.798 107.784C281.699 107.784 278.955 107.093 276.566 105.712C274.176 104.293 272.31 102.333 270.966 99.832C269.622 97.3307 268.95 94.4373 268.95 91.152C268.95 87.8293 269.622 84.936 270.966 82.472C272.31 79.9707 274.176 78.0293 276.566 76.648C278.955 75.2293 281.699 74.52 284.798 74.52C287.747 74.52 290.416 75.2107 292.806 76.592C295.232 77.9733 297.267 79.9147 298.91 82.416C300.59 84.88 301.766 87.792 302.438 91.152ZM276.342 91.152C276.342 93.28 276.771 95.1653 277.63 96.808C278.526 98.4133 279.739 99.6827 281.27 100.616C282.8 101.512 284.555 101.96 286.534 101.96C288.55 101.96 290.416 101.512 292.134 100.616C293.851 99.6827 295.363 98.4133 296.67 96.808C298.014 95.1653 299.078 93.28 299.862 91.152C299.078 89.024 298.014 87.1573 296.67 85.552C295.363 83.9093 293.851 82.64 292.134 81.744C290.416 80.8107 288.55 80.344 286.534 80.344C284.555 80.344 282.8 80.8107 281.27 81.744C279.739 82.64 278.526 83.9093 277.63 85.552C276.771 87.1573 276.342 89.024 276.342 91.152ZM311.124 80.904V77.6L317.9 75.864L320.924 67.016H325.18V75.304H339.908V80.904H325.18V94.624C325.18 97.2747 325.74 99.1413 326.86 100.224C328.017 101.269 329.884 101.792 332.46 101.792C334.102 101.792 335.558 101.624 336.828 101.288C338.097 100.915 339.31 100.392 340.468 99.72V105.712C339.497 106.197 338.116 106.664 336.324 107.112C334.569 107.56 332.758 107.784 330.892 107.784C327.793 107.784 325.292 107.28 323.388 106.272C321.484 105.227 320.084 103.808 319.188 102.016C318.329 100.187 317.9 98.096 317.9 95.744V80.904H311.124ZM361.981 107.784C358.285 107.784 354.999 107.093 352.125 105.712C349.25 104.293 346.991 102.333 345.349 99.832C343.706 97.3307 342.885 94.4187 342.885 91.096C342.885 87.8107 343.65 84.936 345.181 82.472C346.749 79.9707 348.895 78.0293 351.621 76.648C354.383 75.2293 357.538 74.52 361.085 74.52C364.631 74.52 367.693 75.3227 370.269 76.928C372.882 78.496 374.898 80.7173 376.317 83.592C377.735 86.4667 378.445 89.8453 378.445 93.728H348.597V88.184H374.805L371.165 90.256C371.053 88.1653 370.549 86.3733 369.653 84.88C368.794 83.3867 367.618 82.248 366.125 81.464C364.669 80.6427 362.933 80.232 360.917 80.232C358.789 80.232 356.922 80.6613 355.317 81.52C353.749 82.3787 352.517 83.592 351.621 85.16C350.725 86.6907 350.277 88.52 350.277 90.648C350.277 93 350.799 95.0347 351.845 96.752C352.927 98.4693 354.439 99.7947 356.381 100.728C358.359 101.624 360.693 102.072 363.381 102.072C365.807 102.072 368.29 101.699 370.829 100.952C373.367 100.168 375.607 99.0853 377.549 97.704V102.968C375.607 104.461 373.237 105.637 370.437 106.496C367.674 107.355 364.855 107.784 361.981 107.784ZM413.218 99.216V93.616L413.498 92.608V86.504L413.218 85.384V75.304H420.498V98.544C420.498 102.613 419.64 106.011 417.922 108.736C416.205 111.499 413.853 113.571 410.866 114.952C407.88 116.333 404.445 117.024 400.562 117.024C397.725 117.024 395.112 116.651 392.722 115.904C390.333 115.157 388.018 114.019 385.778 112.488V106.44C388.056 108.232 390.408 109.483 392.834 110.192C395.261 110.939 397.688 111.312 400.114 111.312C404.37 111.312 407.618 110.267 409.858 108.176C412.098 106.085 413.218 103.099 413.218 99.216ZM397.986 104.536C395.074 104.536 392.461 103.92 390.146 102.688C387.832 101.419 386.002 99.664 384.658 97.424C383.314 95.184 382.642 92.552 382.642 89.528C382.642 86.504 383.314 83.872 384.658 81.632C386.002 79.392 387.832 77.656 390.146 76.424C392.461 75.1547 395.074 74.52 397.986 74.52C400.152 74.52 402.149 74.856 403.978 75.528C405.845 76.2 407.506 77.096 408.962 78.216C410.456 79.2987 411.706 80.512 412.714 81.856C413.76 83.1627 414.562 84.5067 415.122 85.888C415.682 87.232 415.962 88.464 415.962 89.584C415.962 91.04 415.533 92.6453 414.674 94.4C413.816 96.1173 412.584 97.7413 410.978 99.272C409.41 100.803 407.525 102.072 405.322 103.08C403.12 104.051 400.674 104.536 397.986 104.536ZM400.226 99.16C402.877 99.16 405.304 98.3947 407.506 96.864C409.746 95.3333 411.744 92.888 413.498 89.528C411.744 86.0933 409.746 83.6293 407.506 82.136C405.304 80.6053 402.877 79.84 400.226 79.84C398.061 79.84 396.213 80.2507 394.682 81.072C393.152 81.8933 391.976 83.032 391.154 84.488C390.37 85.944 389.978 87.624 389.978 89.528C389.978 91.3947 390.37 93.056 391.154 94.512C391.976 95.968 393.152 97.1067 394.682 97.928C396.213 98.7493 398.061 99.16 400.226 99.16ZM428.075 75.08L431.715 75.752L435.355 75.08V107H428.075V75.08ZM431.715 71.104C430.334 71.104 429.195 70.7307 428.299 69.984C427.403 69.2 426.955 68.192 426.955 66.96C426.955 65.728 427.403 64.7387 428.299 63.992C429.195 63.208 430.334 62.816 431.715 62.816C433.134 62.816 434.272 63.208 435.131 63.992C436.027 64.7387 436.475 65.728 436.475 66.96C436.475 68.192 436.027 69.2 435.131 69.984C434.272 70.7307 433.134 71.104 431.715 71.104ZM478.059 94.512C477.686 97.1253 476.659 99.44 474.979 101.456C473.299 103.435 471.153 104.984 468.539 106.104C465.926 107.224 463.014 107.784 459.803 107.784C456.145 107.784 452.915 107.093 450.115 105.712C447.353 104.293 445.187 102.333 443.619 99.832C442.051 97.3307 441.267 94.4373 441.267 91.152C441.267 87.8667 442.051 84.9733 443.619 82.472C445.187 79.9707 447.353 78.0293 450.115 76.648C452.915 75.2293 456.145 74.52 459.803 74.52C463.014 74.52 465.926 75.08 468.539 76.2C471.153 77.32 473.299 78.888 474.979 80.904C476.659 82.8827 477.686 85.1973 478.059 87.848H470.723C470.201 85.4587 468.95 83.592 466.971 82.248C464.993 80.904 462.603 80.232 459.803 80.232C457.563 80.232 455.603 80.68 453.923 81.576C452.243 82.4347 450.937 83.6853 450.003 85.328C449.107 86.9333 448.659 88.8747 448.659 91.152C448.659 93.392 449.107 95.3333 450.003 96.976C450.937 98.6187 452.243 99.888 453.923 100.784C455.603 101.643 457.563 102.072 459.803 102.072C462.641 102.072 465.049 101.381 467.027 100C469.006 98.6187 470.238 96.7893 470.723 94.512H478.059ZM49 152.368C48.6267 155.803 47.4133 158.845 45.36 161.496C43.344 164.109 40.6933 166.144 37.408 167.6C34.1227 169.056 30.3707 169.784 26.152 169.784C21.448 169.784 17.3227 168.869 13.776 167.04C10.2293 165.211 7.46667 162.672 5.488 159.424C3.50933 156.139 2.52 152.331 2.52 148C2.52 143.669 3.50933 139.88 5.488 136.632C7.46667 133.347 10.2293 130.789 13.776 128.96C17.3227 127.131 21.448 126.216 26.152 126.216C30.3707 126.216 34.1227 126.944 37.408 128.4C40.6933 129.856 43.344 131.891 45.36 134.504C47.4133 137.117 48.6267 140.16 49 143.632H41.552C41.1413 141.392 40.2453 139.469 38.864 137.864C37.52 136.259 35.7653 135.027 33.6 134.168C31.4347 133.272 28.9333 132.824 26.096 132.824C22.8107 132.824 19.9547 133.44 17.528 134.672C15.1387 135.904 13.2907 137.659 11.984 139.936C10.6773 142.213 10.024 144.901 10.024 148C10.024 151.099 10.6773 153.787 11.984 156.064C13.2907 158.341 15.1387 160.096 17.528 161.328C19.9547 162.56 22.8107 163.176 26.096 163.176C28.9333 163.176 31.4347 162.747 33.6 161.888C35.7653 161.029 37.52 159.797 38.864 158.192C40.2453 156.549 41.1413 154.608 41.552 152.368H49ZM72.4701 169.784C68.6248 169.784 65.2461 169.093 62.3341 167.712C59.4595 166.293 57.2008 164.333 55.5581 161.832C53.9528 159.331 53.1501 156.437 53.1501 153.152C53.1501 149.829 53.9528 146.936 55.5581 144.472C57.2008 141.971 59.4595 140.029 62.3341 138.648C65.2461 137.229 68.6248 136.52 72.4701 136.52C76.3155 136.52 79.6755 137.229 82.5501 138.648C85.4621 140.029 87.7208 141.971 89.3261 144.472C90.9688 146.936 91.7901 149.829 91.7901 153.152C91.7901 156.437 90.9688 159.331 89.3261 161.832C87.7208 164.333 85.4621 166.293 82.5501 167.712C79.6755 169.093 76.3155 169.784 72.4701 169.784ZM72.4701 164.072C74.9341 164.072 77.0435 163.624 78.7981 162.728C80.5901 161.832 81.9715 160.581 82.9421 158.976C83.9128 157.333 84.3981 155.392 84.3981 153.152C84.3981 150.912 83.9128 148.989 82.9421 147.384C81.9715 145.741 80.5901 144.472 78.7981 143.576C77.0435 142.68 74.9341 142.232 72.4701 142.232C70.0435 142.232 67.9341 142.68 66.1421 143.576C64.3501 144.472 62.9688 145.741 61.9981 147.384C61.0275 148.989 60.5421 150.912 60.5421 153.152C60.5421 155.392 61.0275 157.333 61.9981 158.976C62.9688 160.581 64.3501 161.832 66.1421 162.728C67.9341 163.624 70.0435 164.072 72.4701 164.072ZM96.1958 137.304H103.476L105.38 148.728V169H98.0998V147.664L96.1958 137.304ZM117.98 136.52C120.966 136.52 123.505 137.117 125.596 138.312C127.686 139.507 129.273 141.224 130.356 143.464C131.476 145.667 132.036 148.336 132.036 151.472V169H124.756V152.648C124.756 149.325 123.972 146.824 122.404 145.144C120.873 143.427 118.614 142.568 115.628 142.568C113.574 142.568 111.764 143.035 110.196 143.968C108.665 144.864 107.47 146.133 106.612 147.776C105.79 149.419 105.38 151.341 105.38 153.544L102.804 152.144C103.14 148.859 103.998 146.059 105.38 143.744C106.761 141.429 108.534 139.656 110.7 138.424C112.865 137.155 115.292 136.52 117.98 136.52ZM172.141 159.368C172.141 161.496 171.544 163.344 170.349 164.912C169.154 166.48 167.344 167.693 164.917 168.552C162.49 169.373 159.448 169.784 155.789 169.784C152.018 169.784 148.752 169.317 145.989 168.384C143.226 167.413 141.08 166.069 139.549 164.352C138.056 162.597 137.253 160.581 137.141 158.304H144.533C144.757 159.499 145.354 160.563 146.325 161.496C147.333 162.392 148.64 163.083 150.245 163.568C151.888 164.053 153.754 164.296 155.845 164.296C158.869 164.296 161.146 163.941 162.677 163.232C164.208 162.485 164.973 161.365 164.973 159.872C164.973 158.864 164.45 158.099 163.405 157.576C162.397 157.053 160.474 156.661 157.637 156.4L151.421 155.84C148.061 155.541 145.41 154.944 143.469 154.048C141.528 153.115 140.146 151.995 139.325 150.688C138.504 149.344 138.093 147.925 138.093 146.432C138.093 144.267 138.765 142.456 140.109 141C141.453 139.544 143.32 138.443 145.709 137.696C148.098 136.912 150.88 136.52 154.053 136.52C157.338 136.52 160.269 136.987 162.845 137.92C165.421 138.816 167.474 140.085 169.005 141.728C170.536 143.333 171.394 145.2 171.581 147.328H164.189C164.04 146.469 163.592 145.648 162.845 144.864C162.136 144.043 161.034 143.371 159.541 142.848C158.085 142.288 156.125 142.008 153.661 142.008C151.048 142.008 148.994 142.344 147.501 143.016C146.045 143.688 145.317 144.677 145.317 145.984C145.317 146.805 145.765 147.515 146.661 148.112C147.557 148.672 149.218 149.064 151.645 149.288L159.653 150.016C162.864 150.315 165.365 150.893 167.157 151.752C168.986 152.573 170.274 153.637 171.021 154.944C171.768 156.251 172.141 157.725 172.141 159.368ZM191.316 169.784C188.404 169.784 185.921 169.187 183.868 167.992C181.852 166.797 180.302 165.08 179.22 162.84C178.137 160.6 177.596 157.931 177.596 154.832V137.304H184.876V153.712C184.876 156.997 185.622 159.499 187.116 161.216C188.646 162.896 190.83 163.736 193.668 163.736C195.721 163.736 197.476 163.288 198.932 162.392C200.425 161.496 201.582 160.227 202.404 158.584C203.225 156.904 203.636 154.963 203.636 152.76L206.156 154.16C205.857 157.408 205.036 160.208 203.692 162.56C202.348 164.875 200.612 166.667 198.484 167.936C196.356 169.168 193.966 169.784 191.316 169.784ZM205.484 169L203.636 157.576V137.304H210.916V158.696L212.764 169H205.484ZM219.059 125.88H226.339V169H219.059V125.88ZM230.46 142.904V139.6L237.236 137.864L240.26 129.016H244.516V137.304H259.244V142.904H244.516V156.624C244.516 159.275 245.076 161.141 246.196 162.224C247.353 163.269 249.22 163.792 251.796 163.792C253.438 163.792 254.894 163.624 256.164 163.288C257.433 162.915 258.646 162.392 259.804 161.72V167.712C258.833 168.197 257.452 168.664 255.66 169.112C253.905 169.56 252.094 169.784 250.228 169.784C247.129 169.784 244.628 169.28 242.724 168.272C240.82 167.227 239.42 165.808 238.524 164.016C237.665 162.187 237.236 160.096 237.236 157.744V142.904H230.46ZM265.106 137.08L268.746 137.752L272.386 137.08V169H265.106V137.08ZM268.746 133.104C267.365 133.104 266.226 132.731 265.33 131.984C264.434 131.2 263.986 130.192 263.986 128.96C263.986 127.728 264.434 126.739 265.33 125.992C266.226 125.208 267.365 124.816 268.746 124.816C270.165 124.816 271.304 125.208 272.162 125.992C273.058 126.739 273.506 127.728 273.506 128.96C273.506 130.192 273.058 131.2 272.162 131.984C271.304 132.731 270.165 133.104 268.746 133.104ZM278.579 137.304H285.859L287.763 148.728V169H280.483V147.664L278.579 137.304ZM300.363 136.52C303.349 136.52 305.888 137.117 307.979 138.312C310.069 139.507 311.656 141.224 312.739 143.464C313.859 145.667 314.419 148.336 314.419 151.472V169H307.139V152.648C307.139 149.325 306.355 146.824 304.787 145.144C303.256 143.427 300.997 142.568 298.011 142.568C295.957 142.568 294.147 143.035 292.579 143.968C291.048 144.864 289.853 146.133 288.995 147.776C288.173 149.419 287.763 151.341 287.763 153.544L285.187 152.144C285.523 148.859 286.381 146.059 287.763 143.744C289.144 141.429 290.917 139.656 293.083 138.424C295.248 137.155 297.675 136.52 300.363 136.52ZM350.492 161.216V155.616L350.772 154.608V148.504L350.492 147.384V137.304H357.772V160.544C357.772 164.613 356.913 168.011 355.196 170.736C353.478 173.499 351.126 175.571 348.14 176.952C345.153 178.333 341.718 179.024 337.836 179.024C334.998 179.024 332.385 178.651 329.996 177.904C327.606 177.157 325.292 176.019 323.052 174.488V168.44C325.329 170.232 327.681 171.483 330.108 172.192C332.534 172.939 334.961 173.312 337.388 173.312C341.644 173.312 344.892 172.267 347.132 170.176C349.372 168.085 350.492 165.099 350.492 161.216ZM335.26 166.536C332.348 166.536 329.734 165.92 327.42 164.688C325.105 163.419 323.276 161.664 321.932 159.424C320.588 157.184 319.916 154.552 319.916 151.528C319.916 148.504 320.588 145.872 321.932 143.632C323.276 141.392 325.105 139.656 327.42 138.424C329.734 137.155 332.348 136.52 335.26 136.52C337.425 136.52 339.422 136.856 341.252 137.528C343.118 138.2 344.78 139.096 346.236 140.216C347.729 141.299 348.98 142.512 349.988 143.856C351.033 145.163 351.836 146.507 352.396 147.888C352.956 149.232 353.236 150.464 353.236 151.584C353.236 153.04 352.806 154.645 351.948 156.4C351.089 158.117 349.857 159.741 348.252 161.272C346.684 162.803 344.798 164.072 342.596 165.08C340.393 166.051 337.948 166.536 335.26 166.536ZM337.5 161.16C340.15 161.16 342.577 160.395 344.78 158.864C347.02 157.333 349.017 154.888 350.772 151.528C349.017 148.093 347.02 145.629 344.78 144.136C342.577 142.605 340.15 141.84 337.5 141.84C335.334 141.84 333.486 142.251 331.956 143.072C330.425 143.893 329.249 145.032 328.428 146.488C327.644 147.944 327.252 149.624 327.252 151.528C327.252 153.395 327.644 155.056 328.428 156.512C329.249 157.968 330.425 159.107 331.956 159.928C333.486 160.749 335.334 161.16 337.5 161.16Z" fill="#0F172A"/>
</svg>
