<svg width="36" height="36" viewBox="0 0 36 36" fill="none" xmlns="http://www.w3.org/2000/svg">
<rect width="36" height="36" rx="18" fill="#0019FF"/>
<g clip-path="url(#clip0_1017_626)">
<path d="M18.4002 24.1239L14.7102 24.0699L13.9002 24.0519C13.2882 24.0399 12.8262 24.0279 12.5142 24.0159C11.9982 23.9799 11.5422 23.9199 11.1462 23.8359C10.6062 23.7159 10.1802 23.4579 9.86819 23.0619C9.61619 22.7379 9.43019 22.2999 9.31019 21.7479C9.23819 21.4119 9.17219 20.9019 9.11219 20.2179L9.09419 20.1099C8.91419 17.9019 8.99219 15.7419 9.32819 13.6299C9.42419 13.0299 9.65819 12.5589 10.0302 12.2169C10.4022 11.8749 10.8822 11.6799 11.4702 11.6319C14.9502 11.3919 18.9462 11.3559 23.4582 11.5239C23.7342 11.5239 24.1482 11.5719 24.7002 11.6679C25.3122 11.7759 25.7862 12.0459 26.1222 12.4779C26.3982 12.8379 26.5962 13.3239 26.7162 13.9359C26.8002 14.2959 26.8662 14.8539 26.9142 15.6099L26.9322 15.8439C27.0762 17.5599 27.0162 19.3179 26.7522 21.1179C26.6802 21.6819 26.5782 22.1319 26.4462 22.4679C26.2902 22.8879 26.0742 23.2179 25.7982 23.4579C25.4742 23.7219 25.0542 23.8719 24.5382 23.9079C23.2782 23.9919 22.2582 24.0519 21.4782 24.0879C20.3622 24.1359 19.3422 24.1539 18.4182 24.1419C18.4182 24.1299 18.4122 24.1239 18.4002 24.1239ZM16.2402 20.4699C16.9242 20.0619 17.9442 19.4619 19.3002 18.6699L20.8302 17.7699L16.2402 15.0699V20.4699Z" fill="#F8FAFC"/>
</g>
<defs>
<clipPath id="clip0_1017_626">
<rect width="18" height="18" fill="white" transform="matrix(1 0 0 -1 9 26.5)"/>
</clipPath>
</defs>
</svg>
